<svg xmlns="http://www.w3.org/2000/svg" xmlns:v="http://vecta.io" xmlns:xlink="http://www.w3.org/1999/xlink" viewBox="0 0 58 66" stroke="#000" stroke-linecap="round" stroke-linejoin="round" fill="#fff" fill-rule="evenodd" font-family="Roboto" font-size="14px" text-anchor="middle" width="300" height="300"><defs><style type="text/css"></style></defs><g><title>apollographql-icon</title><use xlink:href="#e3iFPCmF7lcCBD147_pEkS.sym" x="0.5" y="0.5"></use></g><symbol id="e3iFPCmF7lcCBD147_pEkS.sym" overflow="visible" v:tags="apollo, logo"><title>apollographql-icon</title><g id="juhmz8475kv" transform="translate(0 0)" class="" v:size="58,66,0.5,0.5"><path d="M 35.3600158691406 18.1380232321283 L 28.7929992675781 18.1380232321283 L 19.3269958496094 42.7050245749018 L 25.2570190429688 42.7050245749018 L 26.8040161132813 38.5430220114252 L 35.7480163574219 38.5430220114252 L 34.1280212402344 33.9390181051752 L 28.2279968261719 33.9390181051752 L 32.0580139160156 23.3690260397455 L 38.8930053710938 42.7060240255854 L 44.8230285644531 42.7060240255854 Z M 55.6330261230469 50.1600264059564 C 55.1947631835938 50.1602095114252 54.7839050292969 50.3731001364252 54.531005859375 50.7310255514643 L 52.7160034179688 52.7140272604486 C 50.0471801757813 55.3896254049799 46.8843383789063 57.521720741894 43.4030151367188 58.9920271383783 C 39.8030090332031 60.5190199362299 35.9570007324219 61.2920149313471 32.0010070800781 61.2920149313471 C 28.084228515625 61.3001783834955 24.2060852050781 60.5175398336908 20.5989990234375 58.9910200583002 C 17.117919921875 57.5208357321283 13.9553833007813 55.3887098776361 11.2870178222656 52.7130201803705 C 8.6114501953125 50.043952797558 6.4790649414063 46.8812025534174 5.0080261230469 43.400024269726 C 3.47900390625 39.8000257956049 2.6930236816406 35.9550245749018 2.6930236816406 32.0000227438471 C 2.6930236816406 28.0450209127924 3.468017578125 24.2080229269525 4.9930114746094 20.598022316601 C 6.4634704589844 17.1162794577143 8.5963134765625 13.9533537374994 11.2730102539063 11.2850264059564 C 13.9420166015625 8.6095961081049 17.1043395996094 6.476928566601 20.5850219726563 5.005019997265 C 24.1921691894531 3.4787596212885 28.0702514648438 2.6961363302729 31.9869995117188 2.7040251242182 C 35.9037780761719 2.6961363302729 39.7818603515625 3.4787596212885 43.3890075683594 5.005019997265 C 45.9290161132813 6.0800245749018 48.281005859375 7.505019997265 50.4120178222656 9.223022316601 C 50.2948608398438 9.567260597851 50.2350769042969 9.9283979879877 50.2350158691406 10.2920225607416 C 50.2350158691406 12.1180189596674 51.7149963378906 13.598022316601 53.5400085449219 13.598022316601 C 55.3650207519531 13.598022316601 56.8460083007813 12.1180189596674 56.8460083007813 10.2920225607416 C 56.8460083007813 8.4660261618158 55.3659973144531 6.9870222555658 53.5400085449219 6.9870222555658 C 53.1007995605469 6.9864576803705 52.6659240722656 7.0738447653314 52.2610168457031 7.2440260397455 C 46.5521850585938 2.5520933615229 39.3895263671875 -0.0088044656256 32 0.0000227438471 C 14.3269958496094 0.0000227438471 0 14.3270185934564 0 32.0000227438471 C 0 49.6730268942377 14.3269958496094 64.0000227438471 32 64.0000227438471 C 41.8860168457031 64.0000227438471 50.7200012207031 59.5140303122065 56.6000061035156 52.4700239645502 C 56.853515625 52.2168501364252 56.9959716796875 51.8732908712885 56.9960021972656 51.5150221334955 C 56.9950256347656 50.7650221334955 56.3900146484375 50.1610182272455 55.6419982910156 50.1610182272455 Z" stroke="none" fill="#333333"></path></g></symbol></svg>